<?xml version="1.0" encoding="utf-8"?>
<!-- Generator: Adobe Illustrator 23.0.0, SVG Export Plug-In . SVG Version: 6.00 Build 0)  -->
<svg version="1.1" id="Layer_1" xmlns="http://www.w3.org/2000/svg" xmlns:xlink="http://www.w3.org/1999/xlink" x="0px" y="0px"
	 viewBox="0 0 358.411 106.891" style="enable-background:new 0 0 358.411 106.891;" xml:space="preserve">
<style type="text/css">
	.st0{fill:#FFF;}
</style>
<path class="st0" d="M172.273,76.738c0.957,1.538,2.213,2.762,3.769,3.668c1.555,0.908,3.308,1.559,5.263,1.952
	c1.954,0.396,3.967,0.592,6.042,0.592c1.594,0,3.269-0.118,5.024-0.355c1.753-0.237,3.368-0.669,4.845-1.302
	c1.475-0.63,2.691-1.557,3.648-2.78c0.957-1.222,1.436-2.781,1.436-4.674c0-2.604-0.998-4.574-2.991-5.917
	c-1.994-1.34-4.486-2.426-7.477-3.254s-6.241-1.577-9.75-2.248c-3.51-0.669-6.759-1.616-9.75-2.84
	c-2.991-1.222-5.484-2.938-7.477-5.147c-1.995-2.208-2.991-5.284-2.991-9.229c0-3.076,0.697-5.718,2.093-7.928
	c1.395-2.208,3.189-4.003,5.383-5.384c2.192-1.379,4.666-2.405,7.417-3.077c2.751-0.669,5.482-1.006,8.194-1.006
	c3.508,0,6.738,0.296,9.689,0.888c2.95,0.592,5.563,1.618,7.836,3.077c2.273,1.46,4.086,3.431,5.443,5.916
	c1.355,2.485,2.153,5.582,2.393,9.289h-10.168c-0.161-1.971-0.678-3.609-1.555-4.911c-0.878-1.301-1.994-2.346-3.35-3.135
	c-1.357-0.788-2.852-1.361-4.486-1.716c-1.635-0.355-3.29-0.533-4.964-0.533c-1.516,0-3.051,0.119-4.606,0.355
	c-1.555,0.237-2.972,0.651-4.247,1.243c-1.276,0.591-2.314,1.381-3.11,2.366c-0.798,0.987-1.196,2.269-1.196,3.846
	c0,1.736,0.617,3.176,1.854,4.319c1.235,1.145,2.811,2.091,4.725,2.84c1.914,0.751,4.067,1.381,6.46,1.894
	c2.393,0.514,4.785,1.046,7.178,1.597c2.551,0.553,5.043,1.224,7.477,2.012c2.432,0.79,4.585,1.834,6.459,3.136
	c1.873,1.301,3.389,2.939,4.546,4.91c1.155,1.973,1.735,4.419,1.735,7.336c0,3.708-0.778,6.785-2.333,9.229
	c-1.555,2.446-3.589,4.418-6.101,5.916c-2.512,1.5-5.344,2.544-8.494,3.136c-3.151,0.592-6.28,0.888-9.391,0.888
	c-3.43,0-6.699-0.355-9.81-1.065s-5.862-1.873-8.254-3.491c-2.393-1.616-4.307-3.746-5.742-6.39
	c-1.436-2.642-2.234-5.857-2.393-9.644h10.168C170.797,73.327,171.316,75.2,172.273,76.738z M250.749,29.23v8.875h-12.322v37.983
	c0,1.183,0.099,2.13,0.299,2.84c0.198,0.71,0.577,1.263,1.136,1.656c0.557,0.396,1.334,0.651,2.333,0.77
	c0.997,0.118,2.292,0.177,3.888,0.177h4.666v8.875h-7.776c-2.632,0-4.886-0.177-6.759-0.532c-1.875-0.355-3.391-1.006-4.546-1.953
	c-1.157-0.947-2.015-2.287-2.572-4.023c-0.559-1.734-0.837-4.023-0.837-6.863v-38.93h-10.527V29.23h10.527V10.89h10.168v18.34
	H250.749z M303.776,86.5c-4.627,3.472-10.449,5.207-17.466,5.207c-4.946,0-9.231-0.79-12.86-2.367s-6.68-3.787-9.15-6.626
	c-2.474-2.84-4.328-6.23-5.563-10.176c-1.237-3.944-1.935-8.242-2.093-12.897c0-4.654,0.718-8.914,2.153-12.779
	c1.435-3.864,3.449-7.218,6.041-10.058s5.662-5.047,9.212-6.626c3.548-1.577,7.436-2.367,11.663-2.367
	c5.503,0,10.068,1.125,13.697,3.373s6.539,5.108,8.732,8.579c2.193,3.472,3.709,7.259,4.547,11.359
	c0.837,4.103,1.176,8.007,1.016,11.714H267.41c-0.08,2.683,0.239,5.227,0.957,7.632c0.718,2.407,1.873,4.537,3.469,6.39
	c1.596,1.854,3.629,3.333,6.102,4.437c2.471,1.106,5.383,1.657,8.732,1.657c4.307,0,7.836-0.985,10.588-2.958
	c2.751-1.971,4.564-4.97,5.442-8.993h10.049C311.39,77.862,308.399,83.03,303.776,86.5z M301.323,47.216
	c-0.918-2.13-2.152-3.964-3.708-5.502s-3.391-2.76-5.503-3.668c-2.114-0.906-4.447-1.361-6.998-1.361
	c-2.632,0-5.006,0.455-7.118,1.361c-2.114,0.908-3.929,2.15-5.442,3.728c-1.516,1.579-2.713,3.413-3.59,5.502
	c-0.878,2.091-1.396,4.319-1.555,6.686h35.529C302.778,51.594,302.239,49.346,301.323,47.216z M331.442,29.23v12.898h0.238
	c2.472-4.97,5.504-8.638,9.092-11.004c3.59-2.367,8.135-3.47,13.639-3.313V38.46c-4.068,0-7.537,0.553-10.408,1.657
	c-2.871,1.105-5.186,2.722-6.938,4.852c-1.755,2.13-3.032,4.714-3.828,7.75c-0.798,3.038-1.196,6.528-1.196,10.472v27.215h-10.168
	V29.23H331.442z M151.939,82.832c-1.597,0-2.533-0.551-2.812-1.653c-0.28-1.102-0.418-2.833-0.418-5.195V44.576
	c0-3.541-0.679-6.414-2.034-8.618c-1.357-2.204-3.151-3.916-5.383-5.136c-2.234-1.22-4.725-2.026-7.477-2.42
	c-2.751-0.394-5.523-0.592-8.314-0.592c-3.51,0-6.8,0.355-9.869,1.065c-3.071,0.71-5.802,1.875-8.195,3.491
	c-2.393,1.618-4.306,3.728-5.742,6.331s-2.234,5.798-2.393,9.584h10.168c0.239-4.497,1.794-7.553,4.666-9.17
	c2.871-1.616,6.46-2.426,10.767-2.426c1.594,0,3.209,0.119,4.845,0.355c1.634,0.237,3.11,0.71,4.426,1.42s2.393,1.736,3.23,3.077
	c0.837,1.342,1.256,3.117,1.256,5.325c0,1.893-0.559,3.333-1.675,4.319c-1.118,0.987-2.632,1.736-4.546,2.248
	c-1.914,0.514-4.127,0.908-6.639,1.184c-2.512,0.277-5.165,0.691-7.955,1.242c-2.632,0.473-5.204,1.065-7.716,1.775
	s-4.746,1.756-6.699,3.136c-1.955,1.381-3.529,3.176-4.725,5.384c-1.196,2.209-1.794,5.049-1.794,8.52
	c0,0.461,0.036,0.891,0.06,1.331c3.63,2.941,7.265,5.851,10.341,8.31l6.016,4.802c1.074,0.857,2.148,1.715,3.222,2.573
	c0.273,0.006,0.541,0.023,0.817,0.023c4.307,0,8.314-0.73,12.022-2.189s6.957-3.846,9.75-7.159c0,3.313,0.778,5.7,2.333,7.159
	c1.555,1.458,3.649,2.189,6.281,2.189c3.11,0,5.542-0.514,7.297-1.539v-7.81C153.853,82.675,152.815,82.832,151.939,82.832z
	 M138.541,69.056c0,1.413-0.359,2.925-1.077,4.533c-0.718,1.609-1.835,3.101-3.35,4.475c-1.516,1.374-3.469,2.512-5.861,3.415
	c-2.393,0.902-5.264,1.354-8.613,1.354c-1.596,0-3.11-0.155-4.546-0.47s-2.691-0.825-3.768-1.531
	c-1.077-0.707-1.955-1.629-2.632-2.768c-0.679-1.139-1.017-2.531-1.017-4.181c0-2.511,0.578-4.493,1.735-5.946
	c1.155-1.453,2.65-2.572,4.486-3.355c1.833-0.784,3.907-1.354,6.221-1.707c2.312-0.353,4.605-0.667,6.878-0.943
	c2.273-0.273,4.445-0.627,6.52-1.06c2.073-0.433,3.748-1.119,5.024-2.062V69.056z M74.303,5.92v25.348
	c1.737,1.708,3.497,3.464,5.131,5.291c1.835,2.052,3.5,4.117,5.037,6.199V5.92H74.303z M82.727,37.007l-6.419-7.116V8h0.001h6.481
	L82.727,37.007z M62.327,7.376C57.433,2.482,50.187,0,40.791,0H0v92.702h14.482V55.803h26.297c0.881,0.008,1.736-0.014,2.579-0.05
	c0.645-0.719,1.296-1.446,1.948-2.174c0.08-0.089,0.161-0.18,0.241-0.269c0.062-0.069,0.123-0.138,0.186-0.207
	c7.568-8.448,15.566-17.403,22.878-25.54c0.355-0.394,0.714-0.794,1.065-1.185C69.401,18.37,66.933,11.982,62.327,7.376z
	 M12.005,53.326v36.898H2.478V35.759l18,17.567C20.478,53.326,12.005,53.326,12.005,53.326z M50.889,39.368
	c-2.905,2.635-7.67,3.929-14.127,3.849h-22.28v-30.63h22.265c6.478,0,11.238,1.318,14.149,3.918
	c2.911,2.601,4.325,6.329,4.325,11.397C55.221,32.905,53.764,36.763,50.889,39.368z M46.641,2.859
	c5.894,0.807,10.569,2.903,13.935,6.269c3.888,3.888,6.085,9.255,6.553,15.978L46.641,2.859z M112.705,89.892
	c-2.006-1.6-4.012-3.201-6.016-4.803c-3.081-2.462-6.72-5.376-10.356-8.321c-0.914-0.74-1.787-2.225-1.666-3.428
	c0.487-4.857-0.447-9.912-2.939-15.909c-2.939-7.073-7.204-13.682-13.039-20.206c-1.885-2.108-3.959-4.142-5.965-6.109
	c-0.677-0.664-1.371-1.345-2.061-2.031l-0.744,0.826l-31.15,34.585c8.021,7.928,20.556,15.412,30.828,18.36
	c4.043,1.16,7.137,1.678,10.031,1.678c1.704,0,3.291-0.182,4.849-0.555c0.458-0.11,0.876-0.163,1.276-0.163
	c1.62,0,2.641,0.91,3.471,1.762c3.018,3.099,6.014,6.145,9.072,9.252c3.924,3.986,7.93,8.041,11.914,12.059
	c4.827-0.321,8.869-3.783,9.911-8.548c0.167-0.766,0.252-1.546,0.254-2.325C117.82,93.973,115.262,91.933,112.705,89.892z
	 M92.399,83.376l-0.17-2.348l2.348-0.17l0.17,2.348L92.399,83.376z M112.293,101.424l-0.17-2.348l2.348-0.17l0.17,2.348
	L112.293,101.424z M79.627,85.536c-1.669,0-3.404-0.172-5.324-0.524v5.393h10.168v-5.402C82.912,85.357,81.325,85.536,79.627,85.536
	z M82.861,88.679h-6.948v-1.798c1.299,0.159,2.513,0.236,3.685,0.236c1.124,0,2.201-0.071,3.263-0.215V88.679z"/>
</svg>
