<?xml version="1.0" encoding="utf-8"?>
<!-- Generator: Adobe Illustrator 23.0.0, SVG Export Plug-In . SVG Version: 6.00 Build 0)  -->
<svg version="1.1" id="Layer_1" xmlns="http://www.w3.org/2000/svg" xmlns:xlink="http://www.w3.org/1999/xlink" x="0px" y="0px"
	 viewBox="0 0 358.4 106.9" style="enable-background:new 0 0 358.4 106.9;" xml:space="preserve">
<style type="text/css">
	.st0{fill:none;}
	.st1{fill:#FFFFFF;}
	.st2{opacity:0.6;fill:#FFFFFF;}
</style>
<g>
	<g>
		
			<rect x="92.3" y="80.9" transform="matrix(0.9974 -7.220511e-02 7.220511e-02 0.9974 -5.6852 6.9647)" class="st0" width="2.4" height="2.4"/>
		
			<rect x="112.2" y="99" transform="matrix(0.9974 -7.223091e-02 7.223091e-02 0.9974 -6.9388 8.4513)" class="st0" width="2.4" height="2.4"/>
		<path class="st0" d="M75.9,86.9v1.8h6.9v-1.8c-1.1,0.1-2.1,0.2-3.3,0.2C78.4,87.1,77.2,87,75.9,86.9z"/>
		<path class="st0" d="M50.9,39.4c2.9-2.6,4.3-6.5,4.3-11.5c0-5.1-1.4-8.8-4.3-11.4c-2.9-2.6-7.7-3.9-14.1-3.9H14.5v30.6h22.3
			C43.2,43.3,48,42,50.9,39.4z"/>
		<path class="st0" d="M60.6,9.1c-3.4-3.4-8-5.5-13.9-6.3l20.5,22.2C66.7,18.4,64.5,13,60.6,9.1z"/>
		<path class="st0" d="M127,61.9c-2.3,0.3-4.6,0.6-6.9,0.9c-2.3,0.4-4.4,0.9-6.2,1.7c-1.8,0.8-3.3,1.9-4.5,3.4
			c-1.2,1.5-1.7,3.4-1.7,5.9c0,1.6,0.3,3,1,4.2c0.7,1.1,1.6,2.1,2.6,2.8c1.1,0.7,2.3,1.2,3.8,1.5c1.4,0.3,2.9,0.5,4.5,0.5
			c3.3,0,6.2-0.5,8.6-1.4c2.4-0.9,4.3-2,5.9-3.4c1.5-1.4,2.6-2.9,3.4-4.5c0.7-1.6,1.1-3.1,1.1-4.5V58.8c-1.3,0.9-3,1.6-5,2.1
			C131.4,61.3,129.3,61.7,127,61.9z"/>
		<path class="st0" d="M297.6,41.7c-1.6-1.5-3.4-2.8-5.5-3.7c-2.1-0.9-4.4-1.4-7-1.4c-2.6,0-5,0.5-7.1,1.4c-2.1,0.9-3.9,2.2-5.4,3.7
			c-1.5,1.6-2.7,3.4-3.6,5.5c-0.9,2.1-1.4,4.3-1.6,6.7h35.5c-0.2-2.4-0.7-4.6-1.6-6.7C300.4,45.1,299.2,43.3,297.6,41.7z"/>
	</g>
	<g>
		<path class="st0" d="M36.7,12.6H14.5v30.6h22.3c6.5,0.1,11.2-1.2,14.1-3.8c2.9-2.6,4.3-6.5,4.3-11.5c0-5.1-1.4-8.8-4.3-11.4
			C48,13.9,43.2,12.6,36.7,12.6z"/>
	</g>
	<path class="st1" d="M340.8,31.1c-3.6,2.4-6.6,6-9.1,11h-0.2V29.2h-9.6v61.2H332V63.2c0-3.9,0.4-7.4,1.2-10.5
		c0.8-3,2.1-5.6,3.8-7.8c1.8-2.1,4.1-3.7,6.9-4.9c2.9-1.1,6.3-1.7,10.4-1.7V27.8C348.9,27.7,344.4,28.8,340.8,31.1z"/>
	<path class="st1" d="M308.1,39.8c-2.2-3.5-5.1-6.3-8.7-8.6c-3.6-2.2-8.2-3.4-13.7-3.4c-4.2,0-8.1,0.8-11.7,2.4
		c-3.6,1.6-6.6,3.8-9.2,6.6c-2.6,2.8-4.6,6.2-6,10.1c-1.4,3.9-2.2,8.1-2.2,12.8c0.2,4.7,0.9,9,2.1,12.9c1.2,3.9,3.1,7.3,5.6,10.2
		c2.5,2.8,5.5,5,9.2,6.6c3.6,1.6,7.9,2.4,12.9,2.4c7,0,12.8-1.7,17.5-5.2c4.6-3.5,7.6-8.6,9-15.5h-10c-0.9,4-2.7,7-5.4,9
		c-2.8,2-6.3,3-10.6,3c-3.3,0-6.3-0.6-8.7-1.7c-2.5-1.1-4.5-2.6-6.1-4.4c-1.6-1.9-2.8-4-3.5-6.4c-0.7-2.4-1-4.9-1-7.6h46.3
		c0.2-3.7-0.2-7.6-1-11.7C311.9,47,310.3,43.2,308.1,39.8z M267.4,54c0.2-2.4,0.7-4.6,1.6-6.7c0.9-2.1,2.1-3.9,3.6-5.5
		c1.5-1.6,3.3-2.8,5.4-3.7c2.1-0.9,4.5-1.4,7.1-1.4c2.6,0,4.9,0.5,7,1.4c2.1,0.9,3.9,2.1,5.5,3.7c1.6,1.5,2.8,3.4,3.7,5.5
		c0.9,2.1,1.5,4.4,1.6,6.7H267.4z"/>
	<path class="st1" d="M238.4,10.9h-10.2v18.3h-10.5v8.9h10.5V77c0,2.8,0.3,5.1,0.8,6.9c0.6,1.7,1.4,3.1,2.6,4c1.2,0.9,2.7,1.6,4.5,2
		c1.9,0.4,4.1,0.5,6.8,0.5h7.8v-8.9h-4.7c-1.6,0-2.9-0.1-3.9-0.2c-1-0.1-1.8-0.4-2.3-0.8c-0.6-0.4-0.9-0.9-1.1-1.7
		c-0.2-0.7-0.3-1.7-0.3-2.8v-38h12.3v-8.9h-12.3V10.9z"/>
	<path class="st1" d="M206.8,60.3c-1.9-1.3-4-2.3-6.5-3.1c-2.4-0.8-4.9-1.5-7.5-2c-2.4-0.6-4.8-1.1-7.2-1.6
		c-2.4-0.5-4.5-1.1-6.5-1.9c-1.9-0.7-3.5-1.7-4.7-2.8c-1.2-1.1-1.9-2.6-1.9-4.3c0-1.6,0.4-2.9,1.2-3.8c0.8-1,1.8-1.8,3.1-2.4
		c1.3-0.6,2.7-1,4.2-1.2c1.6-0.2,3.1-0.4,4.6-0.4c1.7,0,3.3,0.2,5,0.5c1.6,0.4,3.1,0.9,4.5,1.7c1.4,0.8,2.5,1.8,3.4,3.1
		c0.9,1.3,1.4,2.9,1.6,4.9h10.2c-0.2-3.7-1-6.8-2.4-9.3c-1.4-2.5-3.2-4.5-5.4-5.9c-2.3-1.5-4.9-2.5-7.8-3.1c-3-0.6-6.2-0.9-9.7-0.9
		c-2.7,0-5.4,0.3-8.2,1c-2.8,0.7-5.2,1.7-7.4,3.1c-2.2,1.4-4,3.2-5.4,5.4c-1.4,2.2-2.1,4.9-2.1,7.9c0,3.9,1,7,3,9.2
		c2,2.2,4.5,3.9,7.5,5.1c3,1.2,6.2,2.2,9.8,2.8c3.5,0.7,6.8,1.4,9.8,2.2s5.5,1.9,7.5,3.3c2,1.3,3,3.3,3,5.9c0,1.9-0.5,3.5-1.4,4.7
		c-1,1.2-2.2,2.1-3.6,2.8c-1.5,0.6-3.1,1.1-4.8,1.3c-1.8,0.2-3.4,0.4-5,0.4c-2.1,0-4.1-0.2-6-0.6c-2-0.4-3.7-1-5.3-2
		c-1.6-0.9-2.8-2.1-3.8-3.7c-1-1.5-1.5-3.4-1.6-5.6h-10.2c0.2,3.8,1,7,2.4,9.6c1.4,2.6,3.3,4.8,5.7,6.4c2.4,1.6,5.1,2.8,8.3,3.5
		c3.1,0.7,6.4,1.1,9.8,1.1c3.1,0,6.2-0.3,9.4-0.9c3.2-0.6,6-1.6,8.5-3.1c2.5-1.5,4.5-3.5,6.1-5.9c1.6-2.4,2.3-5.5,2.3-9.2
		c0-2.9-0.6-5.4-1.7-7.3C210.2,63.2,208.7,61.6,206.8,60.3z"/>
	<path class="st1" d="M40.8,0H0v33.1l23.5,22.7h17.2c0.9,0,1.7,0,2.6,0c0.6-0.7,1.3-1.4,1.9-2.2c0.1-0.1,0.2-0.2,0.2-0.3
		c0.1-0.1,0.1-0.1,0.2-0.2c7.6-8.4,15.6-17.4,22.9-25.5c0.1-0.1,0.2-0.3,0.4-0.4l-25-27C43,0,41.9,0,40.8,0z M50.9,39.4
		c-2.9,2.6-7.7,3.9-14.1,3.8H14.5V12.6h22.3c6.5,0,11.2,1.3,14.1,3.9c2.9,2.6,4.3,6.3,4.3,11.4C55.2,32.9,53.8,36.8,50.9,39.4z"/>
	<g>
		<path class="st0" d="M82.4,40c-0.1-0.2-0.3-0.3-0.4-0.5C82.1,39.7,82.2,39.9,82.4,40z"/>
		<path class="st0" d="M81.1,38.5c-0.5-0.6-1.1-1.3-1.6-1.9C80.1,37.3,80.6,37.9,81.1,38.5z"/>
		<path class="st0" d="M76.8,33.7c0.1,0.1,0.2,0.2,0.3,0.3C77,33.9,76.9,33.8,76.8,33.7z"/>
		<path class="st0" d="M106.1,85.9c-3.1-2.5-6.7-5.4-10.4-8.3c-1.1-0.9-2.2-2.7-2-4.3c0.5-4.7-0.4-9.6-2.9-15.4
			c-2.9-7-7.1-13.5-12.9-19.9c-1.9-2.1-3.9-4.1-5.9-6.1c-0.4-0.4-0.9-0.9-1.3-1.3l0,0L40.2,64.4c7.9,7.5,20,14.7,29.7,17.4
			c4,1.1,7,1.6,9.8,1.6c1.6,0,3.1-0.2,4.6-0.5c0.5-0.1,1-0.2,1.5-0.2c1.9,0,3.1,1,4.2,2.1c3,3.1,6,6.1,9.1,9.2
			c3.8,3.9,7.7,7.8,11.6,11.7c4.2-0.5,7.7-3.6,8.6-7.7c0.1-0.5,0.2-1.1,0.2-1.6l-7.3-5.8C110.1,89.1,108.1,87.5,106.1,85.9z"/>
		<path class="st2" d="M76.8,33.7c0.1,0.1,0.2,0.2,0.3,0.3c0.8,0.8,1.6,1.7,2.4,2.6c0,0,0.1,0.1,0.1,0.1c0.6,0.6,1.1,1.3,1.6,1.9
			c0.3,0.3,0.6,0.7,0.8,1c0.1,0.2,0.3,0.3,0.4,0.5c0.7,0.9,1.4,1.8,2.1,2.7V5.9H74.3v25.3C75.1,32.1,76,32.9,76.8,33.7z"/>
		<path class="st2" d="M84.5,42.8L84.5,42.8c-0.7-0.9-1.4-1.8-2.1-2.7C83.1,40.9,83.8,41.8,84.5,42.8z"/>
		<path class="st2" d="M82,39.5c-0.3-0.3-0.6-0.7-0.8-1C81.4,38.9,81.7,39.2,82,39.5z"/>
		<path class="st2" d="M76.8,33.7c-0.8-0.8-1.7-1.7-2.5-2.5v0C75.1,32.1,76,32.9,76.8,33.7z"/>
		<path class="st2" d="M77,34c0.8,0.8,1.6,1.7,2.4,2.6c0,0,0.1,0.1,0.1,0.1c0,0-0.1-0.1-0.1-0.1C78.7,35.7,77.9,34.8,77,34z"/>
	</g>
	<g>
		<path class="st0" d="M80.9,85.5c-0.4,0-0.9,0-1.3,0c-0.2,0-0.4,0-0.5,0c0.2,0,0.4,0,0.5,0C80.1,85.5,80.5,85.5,80.9,85.5z"/>
		<path class="st0" d="M83,85.3c0.1,0,0.2,0,0.3,0C83.2,85.2,83.1,85.3,83,85.3z"/>
		<path class="st0" d="M75.5,85.2c0.1,0,0.2,0,0.3,0C75.7,85.2,75.6,85.2,75.5,85.2z"/>
		<path class="st0" d="M78,85.5c0.2,0,0.3,0,0.5,0C78.3,85.5,78.1,85.5,78,85.5z"/>
		<path class="st0" d="M81.3,85.5c0.3,0,0.6,0,0.9-0.1C81.9,85.4,81.6,85.4,81.3,85.5z"/>
		<path class="st0" d="M106.1,85.9c-3.1-2.5-6.7-5.4-10.4-8.3c-1.1-0.9-2.2-2.7-2-4.3c0.5-4.7-0.4-9.6-2.9-15.4
			c-2.9-7-7.1-13.5-12.9-19.9c-1.9-2.1-3.9-4.1-5.9-6.1c-0.4-0.4-0.9-0.9-1.3-1.3l0,0L40.2,64.4c7.9,7.5,20,14.7,29.7,17.4
			c4,1.1,7,1.6,9.8,1.6c1.6,0,3.1-0.2,4.6-0.5c0.5-0.1,1-0.2,1.5-0.2c1.9,0,3.1,1,4.2,2.1c3,3.1,6,6.1,9.1,9.2
			c3.8,3.9,7.7,7.8,11.6,11.7c4.2-0.5,7.7-3.6,8.6-7.7c0.1-0.5,0.2-1.1,0.2-1.6l-7.3-5.8C110.1,89.1,108.1,87.5,106.1,85.9z"/>
		<path class="st0" d="M76.8,85.4c0.1,0,0.2,0,0.3,0C77,85.4,76.9,85.4,76.8,85.4z"/>
		<g>
			<path class="st0" d="M127,61.9c-2.3,0.3-4.6,0.6-6.9,0.9c-2.3,0.4-4.4,0.9-6.2,1.7c-1.8,0.8-3.3,1.9-4.5,3.4
				c-1.2,1.5-1.7,3.4-1.7,5.9c0,1.6,0.3,3,1,4.2c0.7,1.1,1.6,2.1,2.6,2.8c1.1,0.7,2.3,1.2,3.8,1.5c1.4,0.3,2.9,0.5,4.5,0.5
				c3.3,0,6.2-0.5,8.6-1.4c2.4-0.9,4.3-2,5.9-3.4c1.5-1.4,2.6-2.9,3.4-4.5c0.7-1.6,1.1-3.1,1.1-4.5V58.8c-1.3,0.9-3,1.6-5,2.1
				C131.4,61.3,129.3,61.7,127,61.9z"/>
			<path class="st0" d="M106.1,85.9c-3.1-2.5-6.7-5.4-10.4-8.3c-1.1-0.9-2.2-2.7-2-4.3c0.5-4.7-0.4-9.6-2.9-15.4
				c-2.9-7-7.1-13.5-12.9-19.9c-1.9-2.1-3.9-4.1-5.9-6.1c-0.4-0.4-0.9-0.9-1.3-1.3l0,0L40.2,64.4c7.9,7.5,20,14.7,29.7,17.4
				c4,1.1,7,1.6,9.8,1.6c1.6,0,3.1-0.2,4.6-0.5c0.5-0.1,1-0.2,1.5-0.2c1.9,0,3.1,1,4.2,2.1c3,3.1,6,6.1,9.1,9.2
				c3.8,3.9,7.7,7.8,11.6,11.7c4.2-0.5,7.7-3.6,8.6-7.7c0.1-0.5,0.2-1.1,0.2-1.6l-7.3-5.8C110.1,89.1,108.1,87.5,106.1,85.9z"/>
			<path class="st1" d="M151.9,82.8c-1.6,0-2.5-0.6-2.8-1.7c-0.3-1.1-0.4-2.8-0.4-5.2V44.6c0-3.5-0.7-6.4-2-8.6
				c-1.4-2.2-3.2-3.9-5.4-5.1c-2.2-1.2-4.7-2-7.5-2.4c-2.8-0.4-5.5-0.6-8.3-0.6c-3.5,0-6.8,0.4-9.9,1.1c-3.1,0.7-5.8,1.9-8.2,3.5
				c-2.4,1.6-4.3,3.7-5.7,6.3c-1.4,2.6-2.2,5.8-2.4,9.6h10.2c0.2-4.5,1.8-7.6,4.7-9.2c2.9-1.6,6.5-2.4,10.8-2.4
				c1.6,0,3.2,0.1,4.8,0.4c1.6,0.2,3.1,0.7,4.4,1.4c1.3,0.7,2.4,1.7,3.2,3.1c0.8,1.3,1.3,3.1,1.3,5.3c0,1.9-0.6,3.3-1.7,4.3
				c-1.1,1-2.6,1.7-4.5,2.2c-1.9,0.5-4.1,0.9-6.6,1.2c-2.5,0.3-5.2,0.7-8,1.2c-2.6,0.5-5.2,1.1-7.7,1.8c-2.5,0.7-4.7,1.8-6.7,3.1
				c-2,1.4-3.5,3.2-4.7,5.4c-1.2,2.2-1.8,5-1.8,8.5c0,0.5,0,0.9,0.1,1.3c3.6,2.9,7.3,5.9,10.3,8.3h0c2,1.6,4,3.2,6,4.8l3.2,2.6
				c0.3,0,0.5,0,0.8,0c4.3,0,8.3-0.7,12-2.2c3.7-1.5,7-3.8,9.8-7.2c0,3.3,0.8,5.7,2.3,7.2c1.6,1.5,3.6,2.2,6.3,2.2
				c3.1,0,5.5-0.5,7.3-1.5v-7.8C153.9,82.7,152.8,82.8,151.9,82.8z M138.5,69.1c0,1.4-0.4,2.9-1.1,4.5c-0.7,1.6-1.8,3.1-3.4,4.5
				c-1.5,1.4-3.5,2.5-5.9,3.4c-2.4,0.9-5.3,1.4-8.6,1.4c-1.6,0-3.1-0.2-4.5-0.5c-1.4-0.3-2.7-0.8-3.8-1.5c-1.1-0.7-2-1.6-2.6-2.8
				c-0.7-1.1-1-2.5-1-4.2c0-2.5,0.6-4.5,1.7-5.9c1.2-1.5,2.7-2.6,4.5-3.4c1.8-0.8,3.9-1.4,6.2-1.7c2.3-0.4,4.6-0.7,6.9-0.9
				c2.3-0.3,4.4-0.6,6.5-1.1c2.1-0.4,3.7-1.1,5-2.1V69.1z"/>
		</g>
		<path class="st2" d="M83,85.3c-0.3,0-0.6,0.1-0.9,0.1c-0.3,0-0.6,0.1-0.9,0.1c-0.1,0-0.2,0-0.4,0c-0.4,0-0.9,0-1.3,0
			c-0.2,0-0.4,0-0.5,0c-0.2,0-0.4,0-0.6,0c-0.2,0-0.3,0-0.5,0c-0.3,0-0.5,0-0.8-0.1c-0.1,0-0.2,0-0.3,0c-0.3,0-0.7-0.1-1-0.1
			c-0.1,0-0.2,0-0.3,0c-0.4-0.1-0.7-0.1-1.1-0.2c0,0-0.1,0-0.1,0v5.4h10.2V85c-0.1,0-0.1,0-0.2,0c-0.3,0.1-0.6,0.1-0.9,0.2
			C83.2,85.2,83.1,85.3,83,85.3z"/>
		<path class="st2" d="M74.4,85c0.4,0.1,0.8,0.1,1.1,0.2C75.2,85.2,74.8,85.1,74.4,85z"/>
		<path class="st2" d="M75.8,85.3c0.3,0,0.7,0.1,1,0.1C76.5,85.3,76.1,85.3,75.8,85.3z"/>
		<path class="st2" d="M78.4,85.5c0.2,0,0.4,0,0.6,0C78.9,85.5,78.7,85.5,78.4,85.5z"/>
		<path class="st2" d="M82.1,85.4c0.3,0,0.6-0.1,0.9-0.1C82.7,85.3,82.4,85.4,82.1,85.4z"/>
		<path class="st2" d="M84.2,85c-0.3,0.1-0.6,0.1-0.9,0.2C83.6,85.2,83.9,85.1,84.2,85z"/>
		<path class="st2" d="M77.2,85.4c0.3,0,0.6,0,0.8,0.1C77.7,85.5,77.4,85.4,77.2,85.4z"/>
		<path class="st2" d="M80.9,85.5c0.1,0,0.2,0,0.4,0C81.2,85.5,81,85.5,80.9,85.5z"/>
	</g>
	<polygon class="st2" points="0,33.1 0,92.7 14.5,92.7 14.5,55.8 23.5,55.8 	"/>
	<path class="st2" d="M62.3,7.4C58,3.1,51.9,0.6,44,0.1l25,27c0.2-0.3,0.5-0.5,0.7-0.8C69.4,18.4,66.9,12,62.3,7.4z"/>
</g>
<path class="st1" d="M112.7,89.9c-2-1.6-4-3.2-6-4.8c-3.1-2.5-6.7-5.4-10.4-8.3c-0.9-0.7-1.8-2.2-1.7-3.4c0.5-4.9-0.4-9.9-2.9-15.9
	c-2.9-7.1-7.2-13.7-13-20.2c-1.9-2.1-4-4.1-6-6.1c-0.7-0.7-1.4-1.3-2.1-2l-0.7,0.8L38.8,64.5c8,7.9,20.6,15.4,30.8,18.4
	c4,1.2,7.1,1.7,10,1.7c1.7,0,3.3-0.2,4.8-0.6c0.5-0.1,0.9-0.2,1.3-0.2c1.6,0,2.6,0.9,3.5,1.8c3,3.1,6,6.1,9.1,9.3
	c3.9,4,7.9,8,11.9,12.1c4.8-0.3,8.9-3.8,9.9-8.5c0.2-0.8,0.3-1.5,0.3-2.3C117.8,94,115.3,91.9,112.7,89.9z M92.4,83.4L92.2,81
	l2.3-0.2l0.2,2.3L92.4,83.4z M112.3,101.4l-0.2-2.3l2.3-0.2l0.2,2.3L112.3,101.4z"/>
</svg>
